<svg width="24" height="24" viewBox="0 0 24 24" fill="none" xmlns="http://www.w3.org/2000/svg">
<g id="Iconly/Regular/Bulk/Volume Up">
<g id="Volume Up">
<path id="Fill 1" d="M13.3571 6.4507C13.3068 5.96436 13.2543 5.45976 13.1254 4.95625C12.7741 3.75167 11.801 3.00015 10.7576 3.00015C10.1757 2.998 9.43954 3.35658 9.0222 3.71946L5.56287 6.61711H3.75194C2.41918 6.61711 1.34751 7.64454 1.14513 9.12718C0.973161 10.5508 0.931217 13.238 1.14513 14.8044C1.33073 16.3708 2.35416 17.3832 3.75194 17.3832H5.56287L9.08931 20.3238C9.45107 20.6383 10.0897 20.9991 10.6769 20.9991C10.7146 21.0001 10.7482 21.0001 10.7817 21.0001C11.845 21.0001 12.7814 20.2207 13.1327 19.0193C13.2659 18.5083 13.312 18.0295 13.3571 17.5668L13.4043 17.1083C13.5846 15.6214 13.5846 8.36922 13.4043 6.89302L13.3571 6.4507Z" fill="black"/>
<path id="Fill 4" opacity="0.4" d="M17.4066 6.49471C17.1182 6.06956 16.5468 5.96328 16.1284 6.25852C15.7142 6.5559 15.6114 7.14209 15.8998 7.56616C16.7019 8.74819 17.1434 10.3221 17.1434 12.0001C17.1434 13.6771 16.7019 15.2521 15.8998 16.4341C15.6114 16.8582 15.7142 17.4444 16.1294 17.7417C16.2846 17.8513 16.466 17.9092 16.6527 17.9092C16.9536 17.9092 17.2346 17.7578 17.4066 17.5056C18.4195 16.0132 18.9785 14.0582 18.9785 12.0001C18.9785 9.94204 18.4195 7.98701 17.4066 6.49471Z" fill="black"/>
<path id="Fill 6" opacity="0.4" d="M20.5672 3.45738C20.2809 3.03331 19.7073 2.92487 19.29 3.22119C18.8758 3.51858 18.773 4.10476 19.0603 4.52883C20.4172 6.52788 21.1649 9.18182 21.1649 12C21.1649 14.8193 20.4172 17.4732 19.0603 19.4723C18.773 19.8974 18.8758 20.4825 19.291 20.7799C19.4462 20.8894 19.6266 20.9474 19.8132 20.9474C20.1142 20.9474 20.3963 20.796 20.5672 20.5437C22.1359 18.2344 22.9999 15.2004 22.9999 12C22.9999 8.80176 22.1359 5.76669 20.5672 3.45738Z" fill="black"/>
</g>
</g>
</svg>
